# xmcd
#
# Track frame offsets:
# 150
# 13949
# 30228
# 43151
# 56321
# 73872
# 90079
# 108807
# 125301
# 140078
# 154662
# 169567
# 184697
#
# Disc length: 2665 seconds
#
#
# Revision: 0
# Processed by: cddbd v1.5.2PL0 Copyright (c) Steve Scherf et al.
# Submitted via: FreeRIP 2.96 
#
DISCID=9d0a670d
DTITLE=Batidão Sertanejo - CD 4 - Batidão Sertanejo - CD 4
DYEAR=2009
DGENRE=Sertanejo
TTITLE0=Chora, Me Liga! (Ao Vivo) João Bosco and Vinícius
TTITLE1=Você Não Sabe O Que É Amor (Ao Vivo) Luan Santana
TTITLE2=Beijo, Me Liga (Ao Vivo) Ricardo E Eduardo
TTITLE3=Mala Pronta (Ao Vivo) Hugo Pena and Gabriel
TTITLE4=Tarde Demais (Ao Vivo) Cesar Menotti and Fabiano
TTITLE5=Por Toda Vida (Ao Vivo) Banda Nechivile
TTITLE6=Tatuagem - Rud and Robson
TTITLE7=E Daí (Ao Vivo) Carlos and Jader
TTITLE8=Vendaval (Ao Vivo) Fernando and Sorocaba
TTITLE9=Amanhã Sei Lá (Ao Vivo) Michel Teló
TTITLE10=Meu Grande Amor (You're Beautiful) (Ao Vivo) Ulisses and Moisés
TTITLE11=Eu Vou Te Buscar (Ao Vivo) Pedro Paulo and Matheus
TTITLE12=Festa Do Vardomiro (Ao Vivo) Tonny and Kleber
EXTD=Ano 2009 - M.P.A.
EXTT0=
EXTT1=
EXTT2=
EXTT3=
EXTT4=
EXTT5=
EXTT6=
EXTT7=
EXTT8=
EXTT9=
EXTT10=
EXTT11=
EXTT12=
PLAYORDER=
